<svg xmlns="http://www.w3.org/2000/svg" viewBox="5 -5 85 90"><defs><style>.cls-1{fill:#002576;}.cls-2{fill:#21b0ff;}.cls-3{fill:#f6e200;}</style></defs><path class="cls-2" d="M82.5,17.13,52,.47a4.43,4.43,0,0,0-4,0L17.48,17.13a4.44,4.44,0,0,0-2,3.45c0-1.26.9-1.78,2-1.15L48,37.05a4.42,4.42,0,0,1,2,3.45V76.56c0,1.26-.9,1.78-2,1.15a4.43,4.43,0,0,0,4,0L82.5,60.09a4.42,4.42,0,0,0,2-3.45V20.58a4.44,4.44,0,0,0-2-3.45"/><path class="cls-1" d="M50,76.56V40.5a4.42,4.42,0,0,0-2-3.45L17.48,19.43c-1.09-.63-2-.11-2,1.15V56.64a4.42,4.42,0,0,0,2,3.45L48,77.71c1.09.63,2,.11,2-1.15"/><path class="cls-1" d="M34.16,19.38c-3.88,0-7-1.83-7-4.09V18.8c0,6.31,14,6.51,14,0V15.29c0,2.26-3.14,4.09-7,4.09"/><path class="cls-1" d="M67.55,19.38c-3.88,0-7-1.83-7-4.09V18.8c0,6.31,14,6.51,14,0V15.29c0,2.26-3.14,4.09-7,4.09"/><path class="cls-1" d="M50.85,10.28c-3.87,0-7-1.84-7-4.1V9.7c0,6.31,14.05,6.51,14.05,0V6.18c0,2.26-3.15,4.1-7,4.1"/><path class="cls-1" d="M50.85,28.83c-3.87,0-7-1.83-7-4.1V27.9c0,6.32,14.05,6.52,14.05,0V24.73c0,2.27-3.15,4.1-7,4.1"/><path class="cls-1" d="M67.81,37.76c-7.37,4.47-13.35,15.57-13.35,24.79a17.64,17.64,0,0,0,1.18,5.84,1.25,1.25,0,0,0,1.89.45L78.1,56.38A5.24,5.24,0,0,0,80,53.65a34.86,34.86,0,0,0,1.18-7.27c0-9.22-6-13.08-13.35-8.62m-1,4.48a2.49,2.49,0,0,1,1-1.91c.57-.34,1,0,1,.66v2.58a2.42,2.42,0,0,1-1,1.9c-.56.35-1,.05-1-.66ZM60.31,63.41l-2,2c-.54.54-1.12.52-1.29,0a2.3,2.3,0,0,1,.66-2l2-2c.54-.55,1.12-.53,1.29,0a2.3,2.3,0,0,1-.66,2M61,55.83a2.12,2.12,0,0,1-1.29,1.61l-2,.39c-.54.1-.84-.44-.66-1.22A2.12,2.12,0,0,1,58.36,55l2-.39c.54-.11.84.44.66,1.22m2.62-6.08c-.46.69-1.1,1-1.44.58L60.94,49a1.81,1.81,0,0,1,.23-1.94c.46-.69,1.1-1,1.44-.58l1.2,1.35a1.77,1.77,0,0,1-.22,1.93M72,44.63c-.46-.14-.56-.88-.23-1.65L73,40.17c.33-.78,1-1.3,1.43-1.16s.56.88.23,1.66l-1.21,2.81c-.33.78-1,1.29-1.43,1.15m6.52,7.7a2.15,2.15,0,0,1-1.3,1.61l-2,.39c-.54.1-.84-.44-.66-1.22a2.12,2.12,0,0,1,1.29-1.61l2-.39c.54-.11.83.44.66,1.22m-.66-6.72-2,2c-.54.55-1.12.53-1.29,0a2.3,2.3,0,0,1,.66-2l2-2c.54-.54,1.12-.52,1.3.05a2.31,2.31,0,0,1-.66,2"/><path class="cls-3" d="M69.48,57.48a4.47,4.47,0,0,1-.82,1.78,2.52,2.52,0,0,1-1.3,1,.88.88,0,0,1-1-.41,2.21,2.21,0,0,1-.15-1.54c.4-1.92,3.25-9.41,3.25-9.41a.6.6,0,0,1,.35-.39c.16,0,.21.11.21.25s-.13,6.84-.52,8.75"/></svg>
